# xmcd
#
# Track frame offsets:
#	150
#	31612
#	69385
#	116752
#	147175
#	178142
#	206505
#	230135
#	265097
#
# Disc length: 3806 seconds
#
# Revision: 0
# Processed by: cddbd v1.4PL0 Copyright (c) Steve Scherf et al.
# Submitted via: EasyCDDAExtractor 5.0.5.1
#
DISCID=7e0edc09
DTITLE=Dexter Gordon - The Complete Blue Note Sixties Sessions, Disc VI
DYEAR=1900
DGENRE=Jazz
TTITLE0=Le Coiffeur
TTITLE1=Manha De Carnaval
TTITLE2=Flick Of A Trick
TTITLE3=Everybody's Somebody's Fool
TTITLE4=Very Saxily Yours
TTITLE5=Shiny Stockings
TTITLE6=Who Can I Turn To
TTITLE7=Heartaches
TTITLE8=Dexter On Bird
EXTD=
EXTT0=
EXTT1=
EXTT2=
EXTT3=
EXTT4=
EXTT5=
EXTT6=
EXTT7=
EXTT8=
PLAYORDER=
